<!DOCTYPE svg PUBLIC "-//W3C//DTD SVG 20010904//EN" "http://www.w3.org/TR/2001/REC-SVG-20010904/DTD/svg10.dtd">
<svg version="1.0" xmlns="http://www.w3.org/2000/svg" width="1600px" height="1249px" viewBox="0 0 16000 12490" preserveAspectRatio="xMidYMid meet">
<g id="layer1" fill="#ffffff" stroke="none">
 <path d="M4695 12466 c-55 -12 -120 -29 -145 -38 -25 -9 -66 -22 -93 -29 -26 -6 -50 -16 -53 -20 -3 -5 -14 -9 -25 -9 -10 0 -27 -4 -37 -10 -38 -21 -152 -70 -164 -70 -7 0 -24 -9 -38 -20 -14 -11 -33 -20 -42 -20 -9 0 -20 -5 -23 -11 -4 -5 -30 -21 -58 -34 -29 -14 -81 -43 -117 -65 -36 -21 -74 -44 -85 -49 -12 -5 -27 -16 -34 -25 -7 -9 -17 -16 -22 -16 -11 0 -153 -100 -157 -112 -2 -4 -8 -8 -14 -8 -6 0 -23 -10 -38 -22 -15 -13 -40 -32 -56 -43 -15 -11 -36 -28 -46 -37 -10 -10 -20 -18 -23 -18 -3 0 -14 -8 -26 -17 -49 -42 -66 -56 -96 -84 -18 -16 -36 -29 -41 -29 -4 0 -15 -8 -23 -17 -9 -10 -63 -61 -119 -113 -57 -52 -134 -126 -171 -165 -155 -158 -189 -194 -189 -199 0 -4 -62 -75 -102 -118 -10 -10 -18 -21 -18 -25 0 -7 -30 -42 -94 -113 -7 -8 -22 -28 -32 -45 -10 -16 -23 -35 -29 -42 -5 -7 -14 -18 -20 -25 -11 -15 -85 -123 -100 -147 -5 -9 -26 -41 -46 -71 -73 -112 -86 -135 -117 -195 -9 -16 -18 -32 -21 -35 -28 -23 -261 -541 -261 -579 0 -9 -4 -21 -9 -26 -16 -18 -85 -249 -111 -370 -11 -53 -36 -178 -57 -290 -20 -109 -30 -628 -14 -740 27 -186 43 -261 83 -380 5 -16 16 -52 23 -78 7 -26 18 -53 23 -60 5 -7 15 -30 22 -52 7 -22 18 -51 25 -65 7 -14 28 -54 46 -90 18 -36 35 -67 38 -70 3 -3 15 -21 25 -40 11 -19 25 -40 30 -47 29 -33 36 -43 36 -50 0 -5 8 -16 18 -25 9 -9 30 -30 45 -48 l29 -32 -74 -78 c-40 -43 -78 -78 -85 -79 -6 0 -15 -10 -18 -21 -3 -11 -12 -20 -20 -20 -8 0 -17 -9 -20 -20 -3 -11 -13 -20 -21 -20 -8 0 -14 -3 -14 -7 0 -12 -129 -143 -140 -143 -6 0 -10 -4 -10 -8 0 -4 -56 -65 -125 -135 -69 -70 -125 -131 -125 -135 0 -4 -8 -14 -17 -23 -31 -27 -191 -214 -268 -313 -16 -22 -40 -51 -53 -67 -12 -15 -22 -31 -22 -36 0 -5 -8 -16 -18 -24 -17 -16 -24 -25 -82 -109 -65 -94 -100 -149 -100 -160 0 -5 -4 -10 -10 -10 -5 0 -17 -15 -26 -32 -9 -18 -23 -37 -30 -41 -8 -4 -14 -13 -14 -18 0 -6 -13 -29 -29 -52 -29 -43 -63 -100 -88 -149 -8 -16 -18 -28 -22 -28 -4 0 -16 -18 -26 -40 -10 -22 -22 -40 -27 -40 -4 0 -8 -7 -8 -16 0 -9 -8 -28 -18 -42 -15 -22 -70 -127 -132 -252 -13 -26 -48 -102 -80 -175 -17 -38 -35 -78 -41 -87 -5 -10 -9 -27 -9 -37 0 -11 -4 -22 -9 -26 -5 -3 -17 -29 -27 -58 -9 -28 -20 -56 -23 -62 -7 -9 -34 -82 -80 -210 -10 -27 -23 -66 -31 -85 -7 -19 -18 -57 -26 -85 -8 -27 -18 -59 -23 -70 -10 -20 -47 -158 -61 -230 -5 -22 -15 -65 -23 -95 -35 -128 -48 -204 -62 -340 -8 -80 -20 -194 -26 -255 -7 -70 -9 -236 -6 -460 5 -360 12 -432 68 -695 19 -93 82 -311 110 -385 10 -28 19 -54 19 -58 0 -4 8 -26 19 -50 10 -23 40 -91 66 -152 27 -60 54 -119 60 -130 15 -24 72 -128 93 -170 9 -16 22 -36 29 -43 7 -7 13 -17 13 -22 0 -5 6 -15 13 -22 13 -14 84 -117 104 -151 6 -11 15 -22 20 -26 4 -3 20 -22 35 -41 14 -19 35 -45 47 -57 12 -12 21 -24 21 -27 0 -9 221 -226 230 -226 6 0 10 -7 10 -15 0 -8 4 -15 8 -15 5 0 28 -18 53 -40 24 -22 47 -40 51 -40 4 0 13 -6 20 -13 20 -20 134 -99 176 -122 20 -11 39 -22 42 -25 3 -3 16 -11 30 -18 14 -7 43 -23 65 -37 22 -13 51 -29 65 -34 14 -6 32 -16 40 -21 8 -6 22 -13 30 -16 15 -5 87 -38 122 -55 61 -30 282 -109 305 -109 11 0 23 -4 28 -9 6 -5 55 -19 109 -30 55 -12 102 -24 106 -26 3 -2 83 -14 176 -27 154 -21 207 -23 584 -23 384 0 426 2 560 23 80 13 159 27 175 32 30 10 171 45 235 60 35 8 86 25 195 66 75 28 515 250 572 288 24 16 43 33 43 37 0 5 7 9 15 9 8 0 20 9 27 20 7 11 18 20 24 20 6 0 17 7 25 16 7 8 29 24 49 34 20 10 58 39 85 64 26 25 52 46 57 46 4 0 8 6 8 14 0 8 9 17 19 21 11 3 23 15 26 26 4 10 13 19 21 19 8 0 14 4 14 9 0 5 51 60 113 123 61 63 124 132 139 154 25 37 44 60 107 129 15 17 40 55 56 85 16 30 45 78 65 105 19 28 40 58 45 67 6 9 25 37 43 62 17 26 32 49 32 51 0 2 20 33 45 70 24 36 47 75 50 86 4 10 11 19 16 19 5 0 9 5 9 11 0 6 8 23 19 37 19 28 58 98 121 217 20 39 56 105 79 148 23 43 46 86 51 95 5 9 21 42 35 72 14 30 30 62 35 70 4 8 29 60 55 115 26 55 52 109 58 120 33 64 107 223 107 233 0 4 9 25 20 47 11 22 20 48 20 58 0 10 8 31 18 45 16 24 36 67 88 192 8 19 21 46 28 60 7 14 19 43 26 65 7 22 19 49 26 60 8 11 14 25 14 32 0 7 10 35 21 61 34 76 46 105 54 132 4 14 16 41 26 60 11 19 19 41 19 49 0 7 8 32 19 55 50 111 61 137 61 149 1 6 9 30 20 52 11 22 19 46 20 53 0 8 7 26 15 40 8 15 21 45 29 67 28 79 40 111 58 152 10 24 18 48 18 54 0 6 7 25 14 42 18 38 49 128 75 212 10 33 30 85 44 115 38 81 107 261 107 280 0 9 4 20 9 26 5 5 16 32 25 59 25 82 56 168 71 200 7 17 25 66 39 110 14 44 37 112 52 150 14 39 52 144 83 235 32 91 63 175 69 187 7 12 12 29 12 38 0 9 9 35 20 57 11 23 20 50 20 60 0 10 5 27 10 38 6 11 15 29 20 40 6 11 10 27 10 35 0 9 9 33 20 55 11 22 20 47 20 56 0 9 7 30 14 47 19 41 55 143 66 187 12 46 48 151 59 171 6 9 13 34 17 55 3 22 10 46 15 55 8 15 -9 90 -31 134 -13 27 -50 134 -57 165 -3 14 -9 30 -13 35 -4 6 -15 36 -24 68 -10 32 -22 57 -28 55 -9 -3 -58 -114 -58 -131 0 -4 -9 -27 -20 -49 -11 -23 -20 -50 -20 -59 0 -10 -4 -19 -10 -21 -5 -1 -14 -28 -20 -58 -6 -30 -19 -73 -29 -95 -30 -63 -58 -134 -81 -210 -12 -38 -31 -89 -41 -113 -10 -23 -19 -48 -19 -55 0 -7 -8 -28 -19 -47 -10 -19 -24 -59 -31 -88 -6 -28 -16 -55 -21 -58 -5 -3 -9 -13 -9 -22 0 -10 -9 -35 -20 -57 -11 -22 -20 -46 -20 -55 0 -9 -16 -54 -36 -100 -20 -47 -39 -98 -44 -115 -14 -52 -42 -128 -61 -166 -11 -20 -19 -43 -19 -50 0 -8 -6 -26 -14 -41 -8 -14 -19 -43 -26 -65 -7 -21 -18 -51 -25 -68 -18 -46 -35 -95 -52 -150 -9 -27 -19 -54 -23 -60 -4 -5 -13 -28 -20 -50 -7 -22 -18 -53 -25 -70 -8 -16 -28 -70 -45 -120 -33 -93 -51 -141 -95 -260 -14 -38 -29 -79 -32 -90 -3 -11 -13 -38 -23 -60 -10 -22 -21 -55 -25 -73 -3 -17 -11 -32 -15 -32 -5 0 -12 -17 -16 -37 -3 -21 -14 -54 -24 -73 -9 -19 -22 -50 -29 -67 -26 -75 -35 -100 -53 -139 -10 -22 -18 -46 -18 -52 0 -6 -8 -31 -19 -54 -10 -24 -29 -77 -41 -118 -13 -41 -29 -82 -37 -91 -7 -8 -13 -19 -13 -24 0 -5 -9 -27 -19 -49 -11 -23 -26 -59 -34 -81 -8 -22 -21 -56 -28 -75 -7 -19 -21 -54 -31 -77 -10 -24 -18 -49 -18 -57 0 -8 -4 -17 -9 -20 -5 -3 -12 -18 -16 -33 -7 -32 -54 -142 -114 -274 -12 -25 -21 -53 -21 -60 0 -8 -6 -23 -14 -34 -7 -11 -26 -51 -41 -90 -15 -38 -35 -88 -45 -110 -71 -151 -99 -215 -110 -250 -7 -22 -16 -44 -21 -49 -5 -6 -9 -18 -9 -28 0 -10 -3 -18 -8 -18 -4 0 -27 -42 -51 -92 -23 -51 -47 -101 -52 -110 -5 -10 -9 -28 -9 -41 0 -13 -5 -28 -11 -34 -10 -10 -31 -46 -66 -113 -10 -19 -21 -37 -24 -40 -4 -3 -14 -21 -23 -40 -9 -19 -29 -57 -45 -85 -43 -75 -96 -172 -137 -250 -20 -38 -52 -92 -70 -120 -19 -27 -34 -53 -34 -57 0 -5 -16 -31 -35 -58 -19 -27 -35 -53 -35 -57 0 -3 -7 -13 -15 -22 -25 -26 -65 -91 -65 -105 0 -8 -6 -16 -13 -19 -8 -3 -30 -30 -50 -60 -21 -31 -51 -69 -67 -86 -17 -16 -30 -36 -30 -45 0 -8 -16 -27 -36 -42 -19 -15 -42 -41 -51 -58 -14 -26 -179 -195 -285 -291 -48 -43 -147 -118 -185 -140 -18 -11 -33 -23 -33 -27 0 -4 -6 -8 -12 -8 -7 -1 -38 -16 -68 -35 -61 -37 -127 -70 -210 -105 -30 -12 -73 -31 -96 -41 -23 -11 -47 -19 -53 -19 -7 0 -33 -9 -59 -19 -26 -10 -83 -28 -127 -39 -44 -11 -109 -28 -144 -37 -61 -16 -166 -34 -334 -56 -44 -6 -184 -9 -320 -7 -242 4 -330 14 -477 54 -30 8 -71 19 -90 23 -131 30 -508 217 -617 306 -7 6 -23 18 -35 27 -187 140 -420 374 -508 508 -8 13 -22 30 -30 39 -25 27 -150 219 -150 230 0 6 -4 11 -8 11 -4 0 -18 19 -30 43 -12 23 -32 58 -43 77 -43 70 -140 268 -184 375 -72 173 -110 274 -131 350 -8 28 -18 59 -23 70 -24 49 -73 257 -97 405 -43 277 -47 329 -47 705 -1 347 6 478 32 620 5 28 19 106 32 175 12 69 27 139 34 155 7 17 16 46 19 65 11 53 77 282 106 365 52 147 135 359 151 385 5 8 12 22 15 30 30 72 131 278 175 355 15 28 32 60 38 73 6 12 27 47 46 77 19 31 35 57 35 59 0 3 18 32 40 65 22 33 40 64 40 70 0 5 3 11 8 13 10 5 72 97 72 108 0 6 4 10 8 10 5 0 15 12 23 28 8 15 19 32 24 38 6 7 21 26 35 44 14 18 35 45 47 60 13 15 23 33 23 39 0 6 9 16 20 23 11 7 20 17 20 23 0 6 9 16 20 23 11 7 20 16 20 22 0 5 10 20 22 34 13 13 35 38 50 55 16 16 28 32 28 35 0 3 14 19 30 34 17 16 30 32 30 34 0 11 349 368 412 420 21 19 35 25 42 18 6 -6 16 -10 23 -10 7 0 38 -16 68 -35 56 -37 307 -165 322 -165 4 -1 26 -9 48 -20 22 -11 48 -19 58 -20 10 0 28 -5 39 -11 50 -27 251 -68 390 -80 119 -10 170 -10 270 0 140 14 229 30 242 42 6 5 24 9 42 9 17 0 48 7 68 15 19 8 58 20 86 26 27 6 50 14 50 18 0 4 18 14 40 21 22 7 45 19 51 27 6 7 17 13 23 13 7 0 38 15 70 33 32 17 68 38 82 45 13 7 24 17 24 23 0 5 6 9 14 9 7 0 25 11 40 25 15 14 31 25 36 25 5 0 14 9 20 20 6 11 15 20 21 20 13 0 139 126 139 139 0 5 7 11 15 15 8 3 20 16 25 28 6 13 15 32 22 43 7 11 22 36 34 55 51 83 64 283 25 383 -12 31 -27 57 -32 57 -5 0 -9 6 -9 13 0 7 -8 20 -19 29 -10 8 -20 20 -22 25 -7 16 -94 81 -139 103 -74 36 -160 61 -245 70 -44 5 -106 13 -139 16 -101 12 -426 -31 -591 -77 -179 -50 -379 -124 -435 -160 -8 -5 -22 -12 -30 -15 -32 -12 -99 -44 -192 -90 -149 -75 -172 -87 -204 -111 -30 -21 -30 -21 -60 -3 -16 10 -38 35 -48 54 -11 20 -23 36 -28 36 -4 0 -8 4 -8 10 0 5 -28 67 -61 137 -34 70 -66 138 -70 151 -5 12 -13 32 -18 45 -38 96 -83 261 -112 412 -23 122 -32 453 -18 640 14 192 63 429 140 685 10 36 19 73 19 82 0 9 4 20 10 23 5 3 17 31 26 62 14 47 34 99 74 188 37 85 127 258 174 335 15 25 33 60 41 78 9 17 19 32 24 32 5 0 11 8 14 18 9 28 41 76 60 90 9 7 17 17 17 23 0 18 219 309 232 309 5 0 8 4 8 10 0 5 10 20 23 32 12 13 58 64 102 113 91 102 145 157 276 276 50 46 98 91 107 99 8 8 54 45 101 82 47 37 94 74 104 82 9 9 20 16 24 16 3 0 13 7 22 15 18 18 139 105 145 105 5 0 133 83 151 98 6 4 58 32 118 62 59 30 124 64 145 74 106 55 190 84 302 106 25 4 70 17 100 29 38 14 98 23 196 30 147 10 227 5 308 -23 25 -9 57 -16 69 -16 12 0 42 -9 66 -20 24 -11 52 -20 62 -20 10 0 19 -4 19 -10 0 -5 7 -10 15 -10 8 0 31 -10 52 -22 21 -11 47 -26 58 -32 64 -36 115 -79 115 -97 0 -4 17 -16 38 -25 20 -10 41 -24 45 -31 4 -7 15 -13 22 -13 8 0 15 -7 15 -15 0 -8 4 -15 9 -15 6 0 20 -18 32 -40 13 -22 26 -40 30 -40 4 0 9 -6 11 -14 3 -13 50 -68 161 -189 20 -22 37 -48 37 -59 0 -10 9 -23 20 -30 11 -7 20 -18 20 -25 0 -7 9 -18 20 -25 11 -7 20 -18 20 -24 0 -5 8 -19 18 -30 9 -10 28 -39 41 -64 13 -25 32 -54 41 -65 9 -11 23 -35 31 -52 8 -18 17 -33 21 -33 5 0 8 -7 8 -15 0 -9 5 -21 11 -28 16 -18 56 -88 75 -129 9 -21 20 -38 25 -38 5 0 9 -6 9 -12 0 -7 15 -42 34 -78 76 -146 206 -414 206 -424 0 -3 17 -43 39 -88 21 -46 51 -112 65 -148 15 -36 33 -78 41 -95 7 -16 23 -55 35 -85 13 -30 31 -74 41 -97 11 -24 19 -48 19 -53 0 -6 9 -28 20 -48 33 -64 60 -128 60 -144 0 -9 4 -18 8 -20 5 -1 18 -30 30 -63 47 -137 62 -181 71 -200 5 -11 19 -47 31 -80 12 -33 30 -80 40 -105 9 -25 20 -57 24 -72 3 -16 10 -28 15 -28 5 0 12 -15 16 -32 7 -31 13 -47 64 -161 11 -26 21 -57 21 -68 0 -11 7 -34 17 -52 9 -18 22 -52 29 -77 15 -51 81 -237 114 -320 36 -90 71 -184 77 -205 3 -11 11 -33 18 -50 8 -16 20 -48 28 -70 8 -22 27 -71 41 -110 15 -38 41 -110 58 -160 17 -49 37 -101 45 -115 7 -14 13 -31 13 -38 0 -8 7 -28 15 -45 8 -18 21 -52 29 -77 16 -52 35 -107 47 -135 18 -42 61 -162 75 -210 9 -27 20 -54 25 -60 5 -5 9 -21 9 -35 0 -14 4 -30 9 -35 5 -6 25 -59 45 -120 20 -60 41 -119 46 -130 6 -11 16 -40 24 -65 15 -47 33 -101 47 -135 4 -11 27 -78 50 -150 23 -71 46 -134 51 -139 4 -6 8 -22 8 -36 0 -14 4 -30 8 -35 5 -6 14 -30 22 -55 7 -25 21 -69 31 -97 11 -29 27 -77 38 -105 10 -29 24 -73 32 -98 7 -25 16 -49 19 -55 4 -5 10 -21 13 -35 7 -31 44 -138 57 -165 6 -11 16 -40 24 -65 17 -53 36 -107 47 -135 5 -11 17 -45 28 -75 10 -30 39 -113 65 -185 26 -71 52 -143 56 -160 17 -60 59 -168 70 -179 5 -5 10 -19 10 -31 0 -11 9 -38 20 -60 11 -22 20 -44 20 -50 0 -6 12 -36 26 -65 15 -30 46 -115 71 -190 24 -74 48 -139 54 -144 5 -6 9 -17 9 -25 0 -14 37 -115 66 -178 8 -17 14 -37 14 -45 0 -7 9 -28 20 -46 11 -18 20 -43 20 -57 0 -13 4 -27 10 -30 5 -3 16 -27 24 -53 8 -26 21 -60 30 -77 9 -16 16 -36 16 -44 0 -7 8 -30 19 -50 10 -20 28 -63 41 -96 12 -33 31 -79 41 -102 10 -24 19 -49 19 -57 0 -8 4 -17 9 -21 5 -3 15 -22 22 -43 6 -20 20 -55 29 -77 10 -22 30 -69 44 -105 29 -75 49 -120 76 -172 11 -20 20 -43 20 -51 0 -8 9 -22 20 -32 11 -10 20 -28 20 -40 0 -23 21 -77 71 -181 16 -34 29 -67 29 -73 0 -6 5 -11 10 -11 6 0 10 -6 10 -14 0 -8 18 -53 40 -100 22 -47 40 -88 40 -92 0 -16 56 -131 112 -229 15 -27 37 -68 48 -90 20 -41 28 -54 49 -90 6 -11 19 -37 28 -58 9 -20 19 -37 23 -37 4 0 15 -20 24 -45 10 -25 22 -45 27 -45 5 0 9 -6 9 -12 0 -16 40 -98 57 -115 6 -7 15 -23 18 -34 8 -25 66 -113 77 -117 4 -2 8 -8 8 -14 0 -5 15 -28 33 -51 18 -23 40 -52 48 -63 8 -12 38 -56 67 -97 28 -42 52 -80 52 -84 0 -5 9 -16 20 -26 11 -9 20 -23 20 -31 0 -8 30 -49 66 -93 88 -105 94 -112 94 -119 0 -15 411 -419 455 -447 28 -17 93 -63 145 -102 52 -39 140 -94 195 -122 56 -27 110 -55 120 -60 11 -6 34 -17 50 -24 17 -8 32 -16 35 -19 3 -3 19 -10 35 -16 17 -7 64 -26 105 -42 133 -55 305 -112 334 -112 10 0 38 -7 64 -15 80 -26 197 -45 603 -94 106 -13 496 -14 587 -2 37 5 117 15 177 21 61 6 151 20 200 30 50 10 117 24 150 30 32 7 66 16 75 20 8 4 49 18 90 31 41 12 93 31 115 40 22 9 69 30 105 45 63 26 229 104 260 122 18 10 54 30 133 72 31 17 57 34 57 39 0 6 9 13 21 16 22 7 205 151 272 214 112 105 137 129 137 137 0 5 9 15 19 21 33 21 280 334 306 388 8 17 23 44 34 60 114 184 244 482 302 690 12 44 27 98 35 120 7 23 17 70 24 105 6 36 15 79 20 95 5 17 14 66 20 110 5 44 17 130 25 190 17 129 21 719 5 837 -5 40 -17 140 -26 223 -9 82 -20 157 -24 166 -5 9 -14 45 -19 80 -6 35 -17 86 -25 114 -21 72 -46 174 -55 220 -4 22 -12 49 -18 60 -6 11 -16 45 -23 75 -7 30 -16 57 -19 60 -4 3 -14 30 -23 60 -18 63 -82 240 -102 285 -7 17 -23 53 -35 80 -13 28 -29 63 -37 78 -8 16 -14 33 -14 37 0 5 -29 69 -65 143 -36 74 -65 139 -65 146 0 6 -4 11 -10 11 -5 0 -10 4 -10 9 0 12 -34 84 -68 146 -16 28 -41 73 -56 102 -15 28 -34 57 -42 64 -8 6 -14 17 -14 24 0 6 -9 20 -20 30 -11 10 -20 23 -20 29 0 6 -18 39 -40 74 -22 34 -40 67 -40 72 0 5 -6 13 -14 17 -7 4 -21 22 -30 38 -9 17 -44 68 -76 115 -33 47 -77 110 -97 140 -36 52 -117 162 -138 186 -5 6 -17 21 -25 34 -8 12 -24 32 -35 44 -11 13 -29 34 -40 47 -44 54 -121 144 -135 159 -8 9 -53 58 -100 109 -98 108 -338 350 -494 498 -119 113 -117 109 -52 173 19 19 36 40 36 46 0 7 7 14 15 18 8 3 15 11 15 18 0 7 11 25 25 40 14 15 25 34 25 42 0 8 5 18 10 21 22 14 143 288 178 405 34 113 44 152 53 219 6 40 15 85 21 100 16 37 23 544 9 651 -21 167 -41 300 -52 342 -6 24 -14 63 -19 88 -12 67 -56 225 -85 310 -14 41 -29 89 -34 105 -5 17 -27 75 -49 130 -37 91 -54 130 -136 295 -54 109 -118 226 -142 257 -13 17 -28 43 -34 58 -5 14 -14 31 -20 38 -6 6 -40 57 -77 112 -146 220 -164 245 -173 245 -6 0 -10 6 -10 13 0 7 -8 20 -17 29 -10 8 -34 35 -53 59 -19 24 -46 55 -60 71 -14 15 -43 48 -65 74 -39 46 -61 70 -196 210 -70 73 -228 224 -234 224 -2 0 -15 10 -28 23 -46 44 -151 132 -186 157 -20 14 -38 28 -39 33 -2 4 -29 24 -60 44 -32 21 -61 43 -65 50 -4 7 -14 13 -22 13 -7 0 -15 3 -17 8 -3 8 -21 21 -135 97 -46 30 -87 55 -93 55 -5 0 -10 4 -10 9 0 5 -14 14 -31 21 -17 7 -36 19 -43 25 -7 7 -30 22 -52 32 -21 11 -83 43 -138 72 -54 28 -104 51 -112 51 -8 0 -14 4 -14 9 0 5 -10 13 -22 16 -13 4 -41 15 -63 25 -151 70 -281 108 -398 115 -21 1 -43 7 -50 14 -7 7 -79 11 -230 11 -197 0 -229 -2 -325 -25 -103 -23 -147 -39 -202 -71 -14 -8 -42 -22 -62 -32 -21 -9 -38 -20 -38 -24 0 -5 -7 -8 -14 -8 -24 0 -108 -48 -149 -85 -21 -19 -43 -35 -49 -35 -6 0 -58 -46 -116 -102 -182 -179 -239 -240 -292 -313 -24 -33 -52 -69 -62 -79 -10 -11 -18 -23 -18 -27 0 -4 -9 -11 -20 -14 -11 -3 -20 -14 -20 -24 0 -10 -9 -30 -20 -44 -11 -14 -20 -30 -20 -36 0 -6 -5 -11 -11 -11 -15 0 -34 -24 -63 -80 -22 -44 -53 -99 -85 -152 -36 -58 -97 -165 -114 -198 -10 -19 -29 -53 -42 -75 -26 -44 -93 -170 -135 -255 -5 -11 -14 -28 -20 -37 -12 -23 -200 -413 -229 -478 -13 -27 -34 -73 -47 -101 -13 -28 -24 -56 -24 -62 0 -7 -4 -12 -9 -12 -5 0 -13 -10 -17 -22 -4 -13 -21 -54 -39 -93 -17 -38 -38 -88 -45 -110 -7 -22 -30 -76 -51 -120 -20 -44 -44 -102 -53 -130 -8 -27 -26 -72 -40 -99 -14 -27 -26 -58 -26 -68 0 -10 -4 -18 -9 -18 -5 0 -11 -13 -14 -29 -4 -16 -15 -49 -25 -73 -37 -83 -62 -147 -62 -159 0 -7 -6 -20 -14 -28 -8 -9 -21 -34 -29 -56 -9 -22 -23 -60 -32 -85 -9 -25 -23 -58 -30 -75 -7 -16 -25 -61 -40 -100 -14 -38 -30 -79 -35 -90 -20 -45 -60 -152 -60 -161 0 -6 -10 -30 -22 -55 -30 -61 -30 -142 0 -192 12 -21 22 -47 22 -58 0 -10 4 -27 9 -37 14 -28 28 -62 56 -144 15 -43 31 -78 36 -78 5 0 13 19 20 42 6 23 17 51 25 62 8 11 14 28 14 36 0 9 9 35 20 58 11 22 20 46 20 53 0 6 7 25 14 42 20 43 57 146 63 177 3 14 9 30 13 35 4 6 16 33 25 60 37 105 64 182 83 230 11 28 26 66 33 85 7 19 18 49 24 65 7 17 18 47 25 68 7 22 18 51 26 65 8 15 14 33 14 40 0 7 9 30 20 52 11 22 20 51 20 65 0 14 4 25 8 25 5 0 16 21 25 48 41 119 59 169 71 197 7 17 23 57 35 90 13 33 31 76 41 95 10 19 21 55 25 80 4 25 13 52 20 60 6 8 21 35 33 60 43 96 62 140 62 149 0 8 12 36 70 166 10 22 26 58 35 80 9 22 26 56 36 76 10 20 19 42 19 48 0 7 18 50 40 97 22 47 40 90 40 95 0 6 7 17 15 25 8 9 18 27 21 42 4 15 15 39 25 54 11 14 19 29 19 33 0 8 95 199 131 265 18 32 51 87 74 125 14 22 32 54 40 70 15 32 19 37 78 127 20 31 37 59 37 62 0 3 15 26 32 52 18 25 38 53 43 62 6 9 17 24 25 32 8 8 22 28 30 45 8 16 35 50 59 75 43 43 73 86 87 122 3 10 15 20 25 23 10 4 19 11 19 17 0 13 126 138 139 138 5 0 37 26 71 59 33 32 90 74 126 92 37 19 69 40 71 47 3 6 11 12 18 12 6 0 25 7 42 15 16 8 54 19 82 25 29 5 74 17 99 26 55 19 297 22 372 5 25 -5 90 -20 145 -31 55 -12 104 -26 109 -31 6 -5 22 -9 37 -9 15 0 30 -4 34 -9 3 -5 22 -15 43 -21 20 -7 55 -20 77 -30 69 -32 169 -80 185 -89 8 -5 22 -12 30 -15 8 -3 33 -17 55 -31 22 -13 57 -35 79 -47 21 -13 47 -28 56 -33 10 -6 26 -17 35 -25 9 -8 25 -19 35 -25 19 -11 128 -84 145 -97 6 -5 26 -22 45 -38 19 -16 41 -30 48 -30 6 0 12 -4 12 -9 0 -5 25 -27 55 -50 30 -23 82 -67 116 -99 34 -31 66 -60 73 -64 17 -10 245 -240 301 -304 27 -31 62 -70 77 -87 16 -16 28 -32 28 -36 0 -4 8 -14 18 -22 23 -21 48 -54 148 -189 46 -63 90 -122 97 -130 8 -8 17 -22 20 -30 4 -8 18 -33 32 -55 13 -22 34 -57 45 -77 11 -21 25 -38 30 -38 6 0 10 -6 10 -13 0 -18 24 -67 33 -67 4 0 7 -9 7 -19 0 -11 4 -21 9 -23 9 -3 91 -173 91 -188 0 -6 5 -10 10 -10 6 0 10 -6 10 -14 0 -12 11 -38 66 -163 8 -17 14 -36 14 -42 0 -6 8 -30 19 -54 18 -41 42 -115 75 -227 15 -54 37 -151 58 -260 49 -261 48 -250 48 -543 0 -255 -3 -301 -24 -430 -23 -139 -36 -188 -78 -307 -85 -240 -174 -421 -243 -497 l-40 -44 -30 16 c-16 9 -52 29 -80 44 -27 15 -93 50 -146 78 -53 28 -105 56 -115 61 -29 16 -132 62 -138 62 -4 0 -25 8 -49 19 -81 36 -146 61 -157 61 -7 0 -26 6 -43 14 -152 67 -546 135 -718 123 -319 -22 -478 -90 -592 -254 -27 -39 -57 -148 -57 -208 0 -49 28 -166 52 -220 12 -27 40 -73 60 -102 21 -29 38 -55 38 -58 0 -5 118 -123 160 -159 60 -52 269 -176 296 -176 7 0 14 -6 17 -14 3 -8 24 -20 46 -27 23 -7 41 -16 41 -20 0 -4 23 -12 50 -18 28 -6 67 -18 86 -26 20 -8 51 -15 70 -15 18 0 35 -4 38 -8 23 -38 573 -52 721 -19 39 9 84 19 100 22 17 4 49 15 72 26 24 10 50 19 59 19 9 0 38 9 63 21 25 11 66 30 91 41 65 30 143 69 160 82 15 11 33 21 98 57 20 11 52 29 71 40 43 26 27 37 251 -185 146 -144 233 -238 284 -302 11 -15 42 -50 69 -78 26 -28 47 -57 47 -63 0 -7 4 -13 8 -13 5 0 31 -32 58 -71 27 -39 57 -79 67 -87 9 -9 17 -22 17 -29 0 -7 3 -13 8 -13 4 0 18 -18 32 -40 14 -22 28 -40 32 -40 5 0 8 -7 8 -15 0 -9 6 -18 14 -21 7 -3 21 -23 31 -45 10 -21 21 -39 25 -39 4 0 10 -8 14 -17 3 -10 19 -38 36 -63 16 -25 34 -54 40 -65 5 -11 21 -38 35 -60 14 -22 32 -53 40 -70 9 -16 29 -52 45 -80 15 -27 40 -75 55 -105 14 -30 31 -64 37 -75 28 -51 84 -177 133 -295 14 -36 30 -74 35 -85 5 -11 16 -38 24 -60 8 -22 26 -71 41 -110 14 -38 30 -83 35 -100 5 -16 15 -48 24 -70 8 -22 15 -49 16 -61 0 -11 9 -52 21 -90 64 -215 83 -301 105 -469 8 -66 20 -156 26 -200 15 -111 14 -801 -1 -890 -7 -38 -18 -116 -26 -172 -24 -174 -130 -600 -156 -628 -5 -5 -9 -21 -9 -36 0 -15 -4 -30 -9 -34 -5 -3 -15 -22 -21 -43 -7 -20 -20 -56 -31 -79 -10 -24 -19 -45 -19 -49 0 -3 -18 -43 -40 -90 -22 -47 -40 -90 -40 -96 0 -5 -8 -22 -19 -36 -10 -15 -32 -57 -50 -94 -17 -37 -36 -70 -41 -73 -6 -3 -10 -15 -10 -26 0 -11 -7 -22 -15 -25 -8 -4 -15 -11 -15 -18 0 -10 -150 -238 -199 -302 -9 -12 -23 -32 -31 -44 -8 -12 -20 -28 -26 -34 -5 -6 -39 -45 -74 -86 -83 -97 -215 -229 -310 -307 -41 -35 -83 -70 -92 -78 -10 -8 -22 -15 -27 -15 -6 0 -16 -8 -23 -17 -7 -10 -25 -24 -40 -32 -16 -8 -28 -18 -28 -23 0 -4 -6 -8 -12 -8 -7 0 -40 -17 -73 -38 -180 -112 -419 -203 -655 -249 -41 -8 -95 -19 -120 -23 -81 -16 -439 -23 -605 -12 -123 9 -178 17 -238 37 -43 14 -87 25 -99 25 -12 0 -35 4 -52 10 -17 5 -83 26 -146 46 -180 56 -376 146 -450 204 -19 15 -51 34 -70 42 -19 8 -41 27 -49 41 -7 14 -25 28 -40 32 -41 10 -391 360 -391 392 0 6 -18 28 -40 49 -22 21 -40 44 -40 52 0 7 -17 30 -37 50 -21 20 -44 49 -52 64 -7 14 -25 39 -40 55 -15 17 -44 56 -65 89 -21 32 -47 71 -57 86 -11 15 -19 31 -19 36 0 5 -10 22 -22 37 -12 15 -44 73 -73 129 -60 118 -87 165 -126 223 -16 23 -29 44 -29 48 0 3 -9 19 -20 35 -11 17 -28 42 -38 57 -10 16 -22 40 -26 56 -3 15 -11 27 -16 27 -6 0 -10 5 -10 10 0 6 -27 68 -61 138 -101 211 -109 229 -109 236 0 5 -8 20 -19 34 -10 15 -30 59 -46 97 -37 94 -53 133 -76 176 -10 20 -19 43 -19 51 0 8 -9 25 -20 38 -11 13 -20 30 -20 38 0 9 -8 34 -19 56 -24 55 -63 147 -92 221 -13 33 -29 67 -36 76 -7 8 -13 21 -13 27 0 7 -9 31 -19 55 -10 23 -29 69 -41 102 -12 33 -31 78 -41 101 -11 23 -19 48 -19 55 0 8 -9 32 -20 54 -11 22 -20 47 -20 57 0 10 -4 18 -10 18 -5 0 -10 6 -10 13 0 13 -18 57 -40 98 -15 28 -58 143 -65 174 -3 17 -12 44 -20 60 -7 17 -22 55 -33 85 -11 30 -39 105 -62 165 -23 61 -51 135 -62 165 -11 30 -28 73 -38 95 -23 52 -51 128 -89 240 -16 50 -39 115 -51 145 -39 99 -71 185 -80 215 -17 56 -58 173 -68 191 -5 11 -19 45 -31 77 -40 109 -64 172 -76 202 -31 73 -63 162 -70 190 -3 16 -18 54 -31 84 -14 29 -31 77 -39 106 -7 28 -24 74 -37 101 -14 27 -30 69 -37 94 -7 25 -19 59 -26 75 -7 17 -16 46 -20 65 -4 19 -13 44 -19 55 -7 11 -19 37 -26 58 -7 22 -18 51 -26 65 -8 15 -14 33 -14 40 0 7 -9 32 -20 54 -11 23 -20 46 -20 52 0 10 -41 119 -66 173 -8 17 -14 37 -14 44 0 7 -8 31 -19 53 -10 23 -21 50 -24 61 -3 11 -17 52 -32 90 -14 39 -35 97 -47 130 -11 33 -24 64 -29 70 -5 5 -9 17 -9 27 0 10 -9 37 -19 61 -10 23 -21 51 -24 62 -3 11 -19 58 -37 105 -17 47 -38 108 -46 135 -9 28 -19 55 -24 60 -4 6 -10 21 -13 35 -8 33 -44 137 -63 177 -7 17 -14 36 -14 42 0 6 -9 30 -19 54 -11 23 -23 53 -26 67 -4 14 -14 41 -22 60 -20 48 -29 69 -43 110 -7 19 -19 49 -26 65 -7 17 -20 48 -27 70 -34 93 -41 112 -59 152 -10 24 -18 47 -18 53 0 5 -9 29 -19 52 -18 41 -33 78 -82 201 -11 28 -29 70 -38 92 -17 38 -36 83 -80 193 -11 26 -29 74 -42 107 -28 78 -52 125 -61 125 -5 0 -8 12 -8 26 0 28 -22 84 -85 214 -7 14 -15 38 -19 55 -7 28 -17 52 -93 215 -112 243 -195 415 -287 597 -50 100 -97 195 -104 210 -7 15 -17 35 -22 43 -5 8 -24 44 -43 80 -19 36 -44 82 -55 103 -12 20 -32 54 -44 75 -12 20 -28 48 -35 62 -8 14 -27 45 -43 70 -16 25 -37 62 -47 83 -10 20 -21 37 -25 37 -5 0 -8 7 -8 16 0 19 -48 89 -89 129 -17 17 -31 39 -31 51 0 11 -16 36 -36 55 -20 18 -56 62 -81 97 -25 34 -49 62 -54 62 -5 0 -9 6 -9 13 0 23 -320 339 -355 351 -11 3 -37 21 -57 40 -21 19 -99 64 -175 101 -76 37 -146 71 -156 76 -10 5 -65 21 -122 34 -97 23 -123 25 -332 24 -195 -1 -242 -4 -328 -23z m-527 -4631 c102 -45 152 -71 152 -82 0 -6 9 -15 20 -18 11 -3 20 -13 20 -21 0 -8 6 -17 14 -20 8 -3 21 -26 30 -52 10 -26 21 -55 27 -64 41 -76 -58 -225 -220 -331 -65 -44 -179 -101 -251 -127 -19 -6 -44 -16 -55 -21 -11 -4 -66 -17 -122 -29 -146 -29 -343 -29 -460 1 -78 19 -270 93 -283 108 -8 9 -100 71 -105 71 -3 0 -13 8 -24 18 -10 9 -32 27 -49 40 -39 30 -82 73 -82 83 0 7 36 36 81 64 8 6 53 35 100 65 46 30 122 74 169 97 118 57 238 113 245 113 3 0 24 8 48 19 62 27 301 92 392 105 69 10 316 -3 353 -19z m7957 16 c77 -5 169 -17 205 -26 115 -29 145 -38 154 -47 6 -4 22 -8 37 -8 15 0 30 -4 34 -9 3 -5 22 -15 43 -22 33 -10 69 -25 177 -73 28 -13 89 -44 195 -99 25 -13 64 -35 87 -50 24 -15 45 -27 48 -27 3 0 13 -7 23 -15 9 -9 34 -29 55 -46 52 -44 53 -41 -45 -121 -23 -18 -47 -39 -54 -45 -7 -7 -16 -13 -19 -13 -7 0 -96 -61 -105 -71 -19 -23 -167 -79 -275 -105 -123 -29 -401 -27 -510 3 -125 35 -274 98 -360 152 -90 57 -214 169 -215 196 0 6 -9 21 -20 35 -29 38 -26 99 10 170 17 33 35 60 40 60 6 0 10 6 10 14 0 38 159 135 240 146 79 11 90 11 245 1z"/>
 </g>

</svg>